<?xml version="1.0" encoding="utf-8" standalone="no"?>
<!DOCTYPE svg PUBLIC "-//W3C//DTD SVG 1.1//EN"
  "http://www.w3.org/Graphics/SVG/1.1/DTD/svg11.dtd">
<svg xmlns:xlink="http://www.w3.org/1999/xlink" width="488.7pt" height="762.84pt" viewBox="0 0 488.7 762.84" xmlns="http://www.w3.org/2000/svg" version="1.1">
 <metadata>
  <rdf:RDF xmlns:dc="http://purl.org/dc/elements/1.1/" xmlns:cc="http://creativecommons.org/ns#" xmlns:rdf="http://www.w3.org/1999/02/22-rdf-syntax-ns#">
   <cc:Work>
    <dc:type rdf:resource="http://purl.org/dc/dcmitype/StillImage"/>
    <dc:date>2026-05-08T23:44:03.664169</dc:date>
    <dc:format>image/svg+xml</dc:format>
    <dc:creator>
     <cc:Agent>
      <dc:title>Matplotlib v3.10.8, https://matplotlib.org/</dc:title>
     </cc:Agent>
    </dc:creator>
   </cc:Work>
  </rdf:RDF>
 </metadata>
 <defs>
  <style type="text/css">*{stroke-linejoin: round; stroke-linecap: butt}</style>
 </defs>
 <g id="figure_1">
  <g id="patch_1">
   <path d="M 0 762.84 
L 488.7 762.84 
L 488.7 0 
L 0 0 
z
" style="fill: #ffffff"/>
  </g>
  <g id="axes_1">
   <g id="patch_2">
    <path d="M 215.659182 112.536 
Q 241.559692 112.536 266.230364 112.536 
" clip-path="url(#p5fce56319d)" style="fill: none; stroke: #000000; stroke-width: 1.1; stroke-linecap: round"/>
    <path d="M 261.430364 110.136 
L 266.230364 112.536 
L 261.430364 114.936 
z
" clip-path="url(#p5fce56319d)" style="stroke: #000000; stroke-width: 1.1; stroke-linecap: round"/>
   </g>
   <g id="patch_3">
    <path d="M 124.38 136.710804 
Q 124.38 165.204355 124.38 192.468068 
" clip-path="url(#p5fce56319d)" style="fill: none; stroke: #000000; stroke-width: 1.1; stroke-linecap: round"/>
    <path d="M 126.78 187.668068 
L 124.38 192.468068 
L 121.98 187.668068 
z
" clip-path="url(#p5fce56319d)" style="stroke: #000000; stroke-width: 1.1; stroke-linecap: round"/>
   </g>
   <g id="patch_4">
    <path d="M 244.35 136.710804 
Q 244.35 165.204355 244.35 192.468068 
" clip-path="url(#p5fce56319d)" style="fill: none; stroke: #000000; stroke-width: 1.1; stroke-linecap: round"/>
    <path d="M 246.75 187.668068 
L 244.35 192.468068 
L 241.95 187.668068 
z
" clip-path="url(#p5fce56319d)" style="stroke: #000000; stroke-width: 1.1; stroke-linecap: round"/>
   </g>
   <g id="patch_5">
    <path d="M 361.53 136.710804 
Q 361.53 165.204355 361.53 192.468068 
" clip-path="url(#p5fce56319d)" style="fill: none; stroke: #000000; stroke-width: 1.1; stroke-linecap: round"/>
    <path d="M 363.93 187.668068 
L 361.53 192.468068 
L 359.13 187.668068 
z
" clip-path="url(#p5fce56319d)" style="stroke: #000000; stroke-width: 1.1; stroke-linecap: round"/>
   </g>
   <g id="patch_6">
    <path d="M 125.212709 247.41214 
Q 138.330862 276.085885 150.937371 303.641273 
" clip-path="url(#p5fce56319d)" style="fill: none; stroke: #000000; stroke-width: 1.1; stroke-linecap: round"/>
    <path d="M 151.122892 298.277918 
L 150.937371 303.641273 
L 146.757999 300.274843 
z
" clip-path="url(#p5fce56319d)" style="stroke: #000000; stroke-width: 1.1; stroke-linecap: round"/>
   </g>
   <g id="patch_7">
    <path d="M 244.35 247.590804 
Q 244.35 276.084355 244.35 303.348068 
" clip-path="url(#p5fce56319d)" style="fill: none; stroke: #000000; stroke-width: 1.1; stroke-linecap: round"/>
    <path d="M 246.75 298.548068 
L 244.35 303.348068 
L 241.95 298.548068 
z
" clip-path="url(#p5fce56319d)" style="stroke: #000000; stroke-width: 1.1; stroke-linecap: round"/>
   </g>
   <g id="patch_8">
    <path d="M 360.768301 247.441917 
Q 348.975336 276.083184 337.650614 303.58724 
" clip-path="url(#p5fce56319d)" style="fill: none; stroke: #000000; stroke-width: 1.1; stroke-linecap: round"/>
    <path d="M 341.697388 300.062525 
L 337.650614 303.58724 
L 337.258906 298.234991 
z
" clip-path="url(#p5fce56319d)" style="stroke: #000000; stroke-width: 1.1; stroke-linecap: round"/>
   </g>
   <g id="patch_9">
    <path d="M 184.274577 363.357672 
Q 170.415593 375.875464 157.469276 387.568912 
" clip-path="url(#p5fce56319d)" style="fill: none; stroke: #000000; stroke-width: 1.1; stroke-linecap: round"/>
    <path d="M 162.640055 386.132585 
L 157.469276 387.568912 
L 159.422681 382.570492 
z
" clip-path="url(#p5fce56319d)" style="stroke: #000000; stroke-width: 1.1; stroke-linecap: round"/>
   </g>
   <g id="patch_10">
    <path d="M 304.425423 363.357672 
Q 318.284407 375.875464 331.230724 387.568912 
" clip-path="url(#p5fce56319d)" style="fill: none; stroke: #000000; stroke-width: 1.1; stroke-linecap: round"/>
    <path d="M 329.277319 382.570492 
L 331.230724 387.568912 
L 326.059945 386.132585 
z
" clip-path="url(#p5fce56319d)" style="stroke: #000000; stroke-width: 1.1; stroke-linecap: round"/>
   </g>
   <g id="patch_11">
    <path d="M 154.377864 441.507465 
Q 139.725434 481.210823 125.498803 519.760406 
" clip-path="url(#p5fce56319d)" style="fill: none; stroke: #000000; stroke-width: 1.1; stroke-linecap: round"/>
    <path d="M 129.412238 516.08821 
L 125.498803 519.760406 
L 124.909107 514.42634 
z
" clip-path="url(#p5fce56319d)" style="stroke: #000000; stroke-width: 1.1; stroke-linecap: round"/>
   </g>
   <g id="patch_12">
    <path d="M 332.234915 441.065881 
Q 293.175106 481.211891 254.972916 520.476433 
" clip-path="url(#p5fce56319d)" style="fill: none; stroke: #000000; stroke-width: 1.1; stroke-linecap: round"/>
    <path d="M 260.040336 518.709724 
L 254.972916 520.476433 
L 256.600001 515.362472 
z
" clip-path="url(#p5fce56319d)" style="stroke: #000000; stroke-width: 1.1; stroke-linecap: round"/>
   </g>
   <g id="patch_13">
    <path d="M 246.030233 440.720734 
Q 308.519403 481.211613 369.976466 521.033721 
" clip-path="url(#p5fce56319d)" style="fill: none; stroke: #000000; stroke-width: 1.1; stroke-linecap: round"/>
    <path d="M 367.253288 516.409404 
L 369.976466 521.033721 
L 364.643106 520.437673 
z
" clip-path="url(#p5fce56319d)" style="stroke: #000000; stroke-width: 1.1; stroke-linecap: round"/>
   </g>
   <g id="patch_14">
    <path d="M 107.439486 580.224206 
Q 103.454717 619.814808 99.593109 658.181755 
" clip-path="url(#p5fce56319d)" style="fill: none; stroke: #000000; stroke-width: 1.1; stroke-linecap: round"/>
    <path d="M 102.461733 653.646229 
L 99.593109 658.181755 
L 97.685862 653.165541 
z
" clip-path="url(#p5fce56319d)" style="stroke: #000000; stroke-width: 1.1; stroke-linecap: round"/>
   </g>
   <g id="patch_15">
    <path d="M 136.957648 579.640502 
Q 177.38945 619.811454 216.948816 659.115598 
" clip-path="url(#p5fce56319d)" style="fill: none; stroke: #000000; stroke-width: 1.1; stroke-linecap: round"/>
    <path d="M 215.235292 654.029948 
L 216.948816 659.115598 
L 211.852182 657.435027 
z
" clip-path="url(#p5fce56319d)" style="stroke: #000000; stroke-width: 1.1; stroke-linecap: round"/>
   </g>
   <g id="patch_16">
    <path d="M 251.973116 580.087162 
Q 235.979661 619.812843 220.445508 658.397673 
" clip-path="url(#p5fce56319d)" style="fill: none; stroke: #000000; stroke-width: 1.1; stroke-linecap: round"/>
    <path d="M 224.464494 654.841305 
L 220.445508 658.397673 
L 220.011805 653.048664 
z
" clip-path="url(#p5fce56319d)" style="stroke: #000000; stroke-width: 1.1; stroke-linecap: round"/>
   </g>
   <g id="patch_17">
    <path d="M 373.587844 580.016103 
Q 393.614633 619.811271 413.088571 658.507869 
" clip-path="url(#p5fce56319d)" style="fill: none; stroke: #000000; stroke-width: 1.1; stroke-linecap: round"/>
    <path d="M 413.07465 653.141324 
L 413.088571 658.507869 
L 408.786982 655.299079 
z
" clip-path="url(#p5fce56319d)" style="stroke: #000000; stroke-width: 1.1; stroke-linecap: round"/>
   </g>
   <g id="patch_18">
    <path d="M 319.94599 580.214054 
Q 325.259679 619.809608 330.409791 658.186251 
" clip-path="url(#p5fce56319d)" style="fill: none; stroke-dasharray: 4.07,1.76; stroke-dashoffset: 0; stroke: #000000; stroke-width: 1.1; stroke-linecap: round"/>
    <path d="M 332.150035 653.109683 
L 330.409791 658.186251 
L 327.392682 653.748115 
z
" clip-path="url(#p5fce56319d)" style="stroke-dasharray: 4.07,1.76; stroke-dashoffset: 0; stroke: #000000; stroke-width: 1.1; stroke-linecap: round"/>
   </g>
   <g id="patch_19">
    <path d="M 289.781499 683.568 
Q 283.409472 683.568 278.267282 683.568 
" clip-path="url(#p5fce56319d)" style="fill: none; stroke-dasharray: 4.07,1.76; stroke-dashoffset: 0; stroke: #000000; stroke-width: 1.1; stroke-linecap: round"/>
    <path d="M 283.067282 685.968 
L 278.267282 683.568 
L 283.067282 681.168 
z
" clip-path="url(#p5fce56319d)" style="stroke-dasharray: 4.07,1.76; stroke-dashoffset: 0; stroke: #000000; stroke-width: 1.1; stroke-linecap: round"/>
   </g>
   <g id="patch_20">
    <path d="M 64.116 135.8208 
L 212.544 135.8208 
Q 214.776 135.8208 214.776 133.6032 
L 214.776 91.4688 
Q 214.776 89.2512 212.544 89.2512 
L 64.116 89.2512 
Q 61.884 89.2512 61.884 91.4688 
L 61.884 133.6032 
Q 61.884 135.8208 64.116 135.8208 
z
" clip-path="url(#p5fce56319d)" style="fill: #f5f5f5; stroke: #000000; stroke-linejoin: miter"/>
   </g>
   <g id="patch_21">
    <path d="M 270.576 135.8208 
L 419.004 135.8208 
Q 421.236 135.8208 421.236 133.6032 
L 421.236 91.4688 
Q 421.236 89.2512 419.004 89.2512 
L 270.576 89.2512 
Q 268.344 89.2512 268.344 91.4688 
L 268.344 133.6032 
Q 268.344 135.8208 270.576 135.8208 
z
" clip-path="url(#p5fce56319d)" style="fill: #e6e6e6; stroke: #000000; stroke-linejoin: miter"/>
   </g>
   <g id="patch_22">
    <path d="M 64.116 246.7008 
L 184.644 246.7008 
Q 186.876 246.7008 186.876 244.4832 
L 186.876 196.8048 
Q 186.876 194.5872 184.644 194.5872 
L 64.116 194.5872 
Q 61.884 194.5872 61.884 196.8048 
L 61.884 244.4832 
Q 61.884 246.7008 64.116 246.7008 
z
" clip-path="url(#p5fce56319d)" style="fill: #e0e0e0; stroke: #000000; stroke-linejoin: miter"/>
   </g>
   <g id="patch_23">
    <path d="M 195.246 246.7008 
L 293.454 246.7008 
Q 295.686 246.7008 295.686 244.4832 
L 295.686 196.8048 
Q 295.686 194.5872 293.454 194.5872 
L 195.246 194.5872 
Q 193.014 194.5872 193.014 196.8048 
L 193.014 244.4832 
Q 193.014 246.7008 195.246 246.7008 
z
" clip-path="url(#p5fce56319d)" style="fill: #ededed; stroke: #000000; stroke-linejoin: miter"/>
   </g>
   <g id="patch_24">
    <path d="M 304.056 246.7008 
L 419.004 246.7008 
Q 421.236 246.7008 421.236 244.4832 
L 421.236 196.8048 
Q 421.236 194.5872 419.004 194.5872 
L 304.056 194.5872 
Q 301.824 194.5872 301.824 196.8048 
L 301.824 244.4832 
Q 301.824 246.7008 304.056 246.7008 
z
" clip-path="url(#p5fce56319d)" style="fill: #f7f7f7; stroke: #000000; stroke-linejoin: miter"/>
   </g>
   <g id="patch_25">
    <path d="M 75.276 363.1248 
L 413.424 363.1248 
Q 415.656 363.1248 415.656 360.9072 
L 415.656 307.6848 
Q 415.656 305.4672 413.424 305.4672 
L 75.276 305.4672 
Q 73.044 305.4672 73.044 307.6848 
L 73.044 360.9072 
Q 73.044 363.1248 75.276 363.1248 
z
" clip-path="url(#p5fce56319d)" style="fill: #dbdbdb; stroke: #000000; stroke-linejoin: miter"/>
   </g>
   <g id="patch_26">
    <path d="M 75.276 440.7408 
L 234.864 440.7408 
Q 237.096 440.7408 237.096 438.5232 
L 237.096 390.8448 
Q 237.096 388.6272 234.864 388.6272 
L 75.276 388.6272 
Q 73.044 388.6272 73.044 390.8448 
L 73.044 438.5232 
Q 73.044 440.7408 75.276 440.7408 
z
" clip-path="url(#p5fce56319d)" style="fill: #f0f0f0; stroke: #000000; stroke-linejoin: miter"/>
   </g>
   <g id="patch_27">
    <path d="M 253.836 440.7408 
L 413.424 440.7408 
Q 415.656 440.7408 415.656 438.5232 
L 415.656 390.8448 
Q 415.656 388.6272 413.424 388.6272 
L 253.836 388.6272 
Q 251.604 388.6272 251.604 390.8448 
L 251.604 438.5232 
Q 251.604 440.7408 253.836 440.7408 
z
" clip-path="url(#p5fce56319d)" style="fill: #fafafa; stroke: #000000; stroke-linejoin: miter"/>
   </g>
   <g id="patch_28">
    <path d="M 64.116 579.3408 
L 184.644 579.3408 
Q 186.876 579.3408 186.876 577.1232 
L 186.876 523.9008 
Q 186.876 521.6832 184.644 521.6832 
L 64.116 521.6832 
Q 61.884 521.6832 61.884 523.9008 
L 61.884 577.1232 
Q 61.884 579.3408 64.116 579.3408 
z
" clip-path="url(#p5fce56319d)" style="fill: #bdbdbd; stroke: #000000; stroke-linejoin: miter"/>
   </g>
   <g id="patch_29">
    <path d="M 206.406 579.3408 
L 299.034 579.3408 
Q 301.266 579.3408 301.266 577.1232 
L 301.266 523.9008 
Q 301.266 521.6832 299.034 521.6832 
L 206.406 521.6832 
Q 204.174 521.6832 204.174 523.9008 
L 204.174 577.1232 
Q 204.174 579.3408 206.406 579.3408 
z
" clip-path="url(#p5fce56319d)" style="fill: #e6e6e6; stroke: #000000; stroke-linejoin: miter"/>
   </g>
   <g id="patch_30">
    <path d="M 320.796 579.3408 
L 424.584 579.3408 
Q 426.816 579.3408 426.816 577.1232 
L 426.816 523.9008 
Q 426.816 521.6832 424.584 521.6832 
L 320.796 521.6832 
Q 318.564 521.6832 318.564 523.9008 
L 318.564 577.1232 
Q 318.564 579.3408 320.796 579.3408 
z
" clip-path="url(#p5fce56319d)" style="fill: #d1d1d1; stroke: #000000; stroke-linejoin: miter"/>
   </g>
   <g id="patch_31">
    <path d="M 51.84 705.744 
L 146.7 705.744 
L 146.7 661.392 
L 51.84 661.392 
z
" clip-path="url(#p5fce56319d)" style="fill: #ebebeb; stroke: #000000; stroke-linejoin: miter"/>
   </g>
   <g id="patch_32">
    <path d="M 163.44 705.744 
L 275.04 705.744 
L 275.04 661.392 
L 163.44 661.392 
z
" clip-path="url(#p5fce56319d)" style="fill: #d9d9d9; stroke: #000000; stroke-linejoin: miter"/>
   </g>
   <g id="patch_33">
    <path d="M 291.78 705.744 
L 369.9 705.744 
L 369.9 661.392 
L 291.78 661.392 
z
" clip-path="url(#p5fce56319d)" style="fill: #f2f2f2; stroke: #000000; stroke-linejoin: miter"/>
   </g>
   <g id="patch_34">
    <path d="M 386.64 705.744 
L 442.44 705.744 
L 442.44 661.392 
L 386.64 661.392 
z
" clip-path="url(#p5fce56319d)" style="fill: #e3e3e3; stroke: #000000; stroke-linejoin: miter"/>
   </g>
   <g id="text_1">
    <!-- ColdCase System Architecture -->
    <g transform="translate(46.26 31.899062) scale(0.14 -0.14)">
     <defs>
      <path id="DejaVuSans-Bold-43" d="M 4288 256 
Q 3956 84 3597 -3 
Q 3238 -91 2847 -91 
Q 1681 -91 1000 561 
Q 319 1213 319 2328 
Q 319 3447 1000 4098 
Q 1681 4750 2847 4750 
Q 3238 4750 3597 4662 
Q 3956 4575 4288 4403 
L 4288 3438 
Q 3953 3666 3628 3772 
Q 3303 3878 2944 3878 
Q 2300 3878 1931 3465 
Q 1563 3053 1563 2328 
Q 1563 1606 1931 1193 
Q 2300 781 2944 781 
Q 3303 781 3628 887 
Q 3953 994 4288 1222 
L 4288 256 
z
" transform="scale(0.015625)"/>
      <path id="DejaVuSans-Bold-6f" d="M 2203 2784 
Q 1831 2784 1636 2517 
Q 1441 2250 1441 1747 
Q 1441 1244 1636 976 
Q 1831 709 2203 709 
Q 2569 709 2762 976 
Q 2956 1244 2956 1747 
Q 2956 2250 2762 2517 
Q 2569 2784 2203 2784 
z
M 2203 3584 
Q 3106 3584 3614 3096 
Q 4122 2609 4122 1747 
Q 4122 884 3614 396 
Q 3106 -91 2203 -91 
Q 1297 -91 786 396 
Q 275 884 275 1747 
Q 275 2609 786 3096 
Q 1297 3584 2203 3584 
z
" transform="scale(0.015625)"/>
      <path id="DejaVuSans-Bold-6c" d="M 538 4863 
L 1656 4863 
L 1656 0 
L 538 0 
L 538 4863 
z
" transform="scale(0.015625)"/>
      <path id="DejaVuSans-Bold-64" d="M 2919 2988 
L 2919 4863 
L 4044 4863 
L 4044 0 
L 2919 0 
L 2919 506 
Q 2688 197 2409 53 
Q 2131 -91 1766 -91 
Q 1119 -91 703 423 
Q 288 938 288 1747 
Q 288 2556 703 3070 
Q 1119 3584 1766 3584 
Q 2128 3584 2408 3439 
Q 2688 3294 2919 2988 
z
M 2181 722 
Q 2541 722 2730 984 
Q 2919 1247 2919 1747 
Q 2919 2247 2730 2509 
Q 2541 2772 2181 2772 
Q 1825 2772 1636 2509 
Q 1447 2247 1447 1747 
Q 1447 1247 1636 984 
Q 1825 722 2181 722 
z
" transform="scale(0.015625)"/>
      <path id="DejaVuSans-Bold-61" d="M 2106 1575 
Q 1756 1575 1579 1456 
Q 1403 1338 1403 1106 
Q 1403 894 1545 773 
Q 1688 653 1941 653 
Q 2256 653 2472 879 
Q 2688 1106 2688 1447 
L 2688 1575 
L 2106 1575 
z
M 3816 1997 
L 3816 0 
L 2688 0 
L 2688 519 
Q 2463 200 2181 54 
Q 1900 -91 1497 -91 
Q 953 -91 614 226 
Q 275 544 275 1050 
Q 275 1666 698 1953 
Q 1122 2241 2028 2241 
L 2688 2241 
L 2688 2328 
Q 2688 2594 2478 2717 
Q 2269 2841 1825 2841 
Q 1466 2841 1156 2769 
Q 847 2697 581 2553 
L 581 3406 
Q 941 3494 1303 3539 
Q 1666 3584 2028 3584 
Q 2975 3584 3395 3211 
Q 3816 2838 3816 1997 
z
" transform="scale(0.015625)"/>
      <path id="DejaVuSans-Bold-73" d="M 3272 3391 
L 3272 2541 
Q 2913 2691 2578 2766 
Q 2244 2841 1947 2841 
Q 1628 2841 1473 2761 
Q 1319 2681 1319 2516 
Q 1319 2381 1436 2309 
Q 1553 2238 1856 2203 
L 2053 2175 
Q 2913 2066 3209 1816 
Q 3506 1566 3506 1031 
Q 3506 472 3093 190 
Q 2681 -91 1863 -91 
Q 1516 -91 1145 -36 
Q 775 19 384 128 
L 384 978 
Q 719 816 1070 734 
Q 1422 653 1784 653 
Q 2113 653 2278 743 
Q 2444 834 2444 1013 
Q 2444 1163 2330 1236 
Q 2216 1309 1875 1350 
L 1678 1375 
Q 931 1469 631 1722 
Q 331 1975 331 2491 
Q 331 3047 712 3315 
Q 1094 3584 1881 3584 
Q 2191 3584 2531 3537 
Q 2872 3491 3272 3391 
z
" transform="scale(0.015625)"/>
      <path id="DejaVuSans-Bold-65" d="M 4031 1759 
L 4031 1441 
L 1416 1441 
Q 1456 1047 1700 850 
Q 1944 653 2381 653 
Q 2734 653 3104 758 
Q 3475 863 3866 1075 
L 3866 213 
Q 3469 63 3072 -14 
Q 2675 -91 2278 -91 
Q 1328 -91 801 392 
Q 275 875 275 1747 
Q 275 2603 792 3093 
Q 1309 3584 2216 3584 
Q 3041 3584 3536 3087 
Q 4031 2591 4031 1759 
z
M 2881 2131 
Q 2881 2450 2695 2645 
Q 2509 2841 2209 2841 
Q 1884 2841 1681 2658 
Q 1478 2475 1428 2131 
L 2881 2131 
z
" transform="scale(0.015625)"/>
      <path id="DejaVuSans-Bold-20" transform="scale(0.015625)"/>
      <path id="DejaVuSans-Bold-53" d="M 3834 4519 
L 3834 3531 
Q 3450 3703 3084 3790 
Q 2719 3878 2394 3878 
Q 1963 3878 1756 3759 
Q 1550 3641 1550 3391 
Q 1550 3203 1689 3098 
Q 1828 2994 2194 2919 
L 2706 2816 
Q 3484 2659 3812 2340 
Q 4141 2022 4141 1434 
Q 4141 663 3683 286 
Q 3225 -91 2284 -91 
Q 1841 -91 1394 -6 
Q 947 78 500 244 
L 500 1259 
Q 947 1022 1364 901 
Q 1781 781 2169 781 
Q 2563 781 2772 912 
Q 2981 1044 2981 1288 
Q 2981 1506 2839 1625 
Q 2697 1744 2272 1838 
L 1806 1941 
Q 1106 2091 782 2419 
Q 459 2747 459 3303 
Q 459 4000 909 4375 
Q 1359 4750 2203 4750 
Q 2588 4750 2994 4692 
Q 3400 4634 3834 4519 
z
" transform="scale(0.015625)"/>
      <path id="DejaVuSans-Bold-79" d="M 78 3500 
L 1197 3500 
L 2138 1125 
L 2938 3500 
L 4056 3500 
L 2584 -331 
Q 2363 -916 2067 -1148 
Q 1772 -1381 1288 -1381 
L 641 -1381 
L 641 -647 
L 991 -647 
Q 1275 -647 1404 -556 
Q 1534 -466 1606 -231 
L 1638 -134 
L 78 3500 
z
" transform="scale(0.015625)"/>
      <path id="DejaVuSans-Bold-74" d="M 1759 4494 
L 1759 3500 
L 2913 3500 
L 2913 2700 
L 1759 2700 
L 1759 1216 
Q 1759 972 1856 886 
Q 1953 800 2241 800 
L 2816 800 
L 2816 0 
L 1856 0 
Q 1194 0 917 276 
Q 641 553 641 1216 
L 641 2700 
L 84 2700 
L 84 3500 
L 641 3500 
L 641 4494 
L 1759 4494 
z
" transform="scale(0.015625)"/>
      <path id="DejaVuSans-Bold-6d" d="M 3781 2919 
Q 3994 3244 4286 3414 
Q 4578 3584 4928 3584 
Q 5531 3584 5847 3212 
Q 6163 2841 6163 2131 
L 6163 0 
L 5038 0 
L 5038 1825 
Q 5041 1866 5042 1909 
Q 5044 1953 5044 2034 
Q 5044 2406 4934 2573 
Q 4825 2741 4581 2741 
Q 4263 2741 4089 2478 
Q 3916 2216 3909 1719 
L 3909 0 
L 2784 0 
L 2784 1825 
Q 2784 2406 2684 2573 
Q 2584 2741 2328 2741 
Q 2006 2741 1831 2477 
Q 1656 2213 1656 1722 
L 1656 0 
L 531 0 
L 531 3500 
L 1656 3500 
L 1656 2988 
Q 1863 3284 2130 3434 
Q 2397 3584 2719 3584 
Q 3081 3584 3359 3409 
Q 3638 3234 3781 2919 
z
" transform="scale(0.015625)"/>
      <path id="DejaVuSans-Bold-41" d="M 3419 850 
L 1538 850 
L 1241 0 
L 31 0 
L 1759 4666 
L 3194 4666 
L 4922 0 
L 3713 0 
L 3419 850 
z
M 1838 1716 
L 3116 1716 
L 2478 3572 
L 1838 1716 
z
" transform="scale(0.015625)"/>
      <path id="DejaVuSans-Bold-72" d="M 3138 2547 
Q 2991 2616 2845 2648 
Q 2700 2681 2553 2681 
Q 2122 2681 1889 2404 
Q 1656 2128 1656 1613 
L 1656 0 
L 538 0 
L 538 3500 
L 1656 3500 
L 1656 2925 
Q 1872 3269 2151 3426 
Q 2431 3584 2822 3584 
Q 2878 3584 2943 3579 
Q 3009 3575 3134 3559 
L 3138 2547 
z
" transform="scale(0.015625)"/>
      <path id="DejaVuSans-Bold-63" d="M 3366 3391 
L 3366 2478 
Q 3138 2634 2908 2709 
Q 2678 2784 2431 2784 
Q 1963 2784 1702 2511 
Q 1441 2238 1441 1747 
Q 1441 1256 1702 982 
Q 1963 709 2431 709 
Q 2694 709 2930 787 
Q 3166 866 3366 1019 
L 3366 103 
Q 3103 6 2833 -42 
Q 2563 -91 2291 -91 
Q 1344 -91 809 395 
Q 275 881 275 1747 
Q 275 2613 809 3098 
Q 1344 3584 2291 3584 
Q 2566 3584 2833 3536 
Q 3100 3488 3366 3391 
z
" transform="scale(0.015625)"/>
      <path id="DejaVuSans-Bold-68" d="M 4056 2131 
L 4056 0 
L 2931 0 
L 2931 347 
L 2931 1625 
Q 2931 2084 2911 2256 
Q 2891 2428 2841 2509 
Q 2775 2619 2662 2680 
Q 2550 2741 2406 2741 
Q 2056 2741 1856 2470 
Q 1656 2200 1656 1722 
L 1656 0 
L 538 0 
L 538 4863 
L 1656 4863 
L 1656 2988 
Q 1909 3294 2193 3439 
Q 2478 3584 2822 3584 
Q 3428 3584 3742 3212 
Q 4056 2841 4056 2131 
z
" transform="scale(0.015625)"/>
      <path id="DejaVuSans-Bold-69" d="M 538 3500 
L 1656 3500 
L 1656 0 
L 538 0 
L 538 3500 
z
M 538 4863 
L 1656 4863 
L 1656 3950 
L 538 3950 
L 538 4863 
z
" transform="scale(0.015625)"/>
      <path id="DejaVuSans-Bold-75" d="M 500 1363 
L 500 3500 
L 1625 3500 
L 1625 3150 
Q 1625 2866 1622 2436 
Q 1619 2006 1619 1863 
Q 1619 1441 1641 1255 
Q 1663 1069 1716 984 
Q 1784 875 1895 815 
Q 2006 756 2150 756 
Q 2500 756 2700 1025 
Q 2900 1294 2900 1772 
L 2900 3500 
L 4019 3500 
L 4019 0 
L 2900 0 
L 2900 506 
Q 2647 200 2364 54 
Q 2081 -91 1741 -91 
Q 1134 -91 817 281 
Q 500 653 500 1363 
z
" transform="scale(0.015625)"/>
     </defs>
     <use xlink:href="#DejaVuSans-Bold-43"/>
     <use xlink:href="#DejaVuSans-Bold-6f" transform="translate(73.388672 0)"/>
     <use xlink:href="#DejaVuSans-Bold-6c" transform="translate(142.089844 0)"/>
     <use xlink:href="#DejaVuSans-Bold-64" transform="translate(176.367188 0)"/>
     <use xlink:href="#DejaVuSans-Bold-43" transform="translate(247.949219 0)"/>
     <use xlink:href="#DejaVuSans-Bold-61" transform="translate(321.337891 0)"/>
     <use xlink:href="#DejaVuSans-Bold-73" transform="translate(388.818359 0)"/>
     <use xlink:href="#DejaVuSans-Bold-65" transform="translate(448.339844 0)"/>
     <use xlink:href="#DejaVuSans-Bold-20" transform="translate(516.162109 0)"/>
     <use xlink:href="#DejaVuSans-Bold-53" transform="translate(550.976562 0)"/>
     <use xlink:href="#DejaVuSans-Bold-79" transform="translate(622.998047 0)"/>
     <use xlink:href="#DejaVuSans-Bold-73" transform="translate(688.183594 0)"/>
     <use xlink:href="#DejaVuSans-Bold-74" transform="translate(747.705078 0)"/>
     <use xlink:href="#DejaVuSans-Bold-65" transform="translate(795.507812 0)"/>
     <use xlink:href="#DejaVuSans-Bold-6d" transform="translate(863.330078 0)"/>
     <use xlink:href="#DejaVuSans-Bold-20" transform="translate(967.529297 0)"/>
     <use xlink:href="#DejaVuSans-Bold-41" transform="translate(1002.34375 0)"/>
     <use xlink:href="#DejaVuSans-Bold-72" transform="translate(1079.736328 0)"/>
     <use xlink:href="#DejaVuSans-Bold-63" transform="translate(1129.052734 0)"/>
     <use xlink:href="#DejaVuSans-Bold-68" transform="translate(1188.330078 0)"/>
     <use xlink:href="#DejaVuSans-Bold-69" transform="translate(1259.521484 0)"/>
     <use xlink:href="#DejaVuSans-Bold-74" transform="translate(1293.798828 0)"/>
     <use xlink:href="#DejaVuSans-Bold-65" transform="translate(1341.601562 0)"/>
     <use xlink:href="#DejaVuSans-Bold-63" transform="translate(1409.423828 0)"/>
     <use xlink:href="#DejaVuSans-Bold-74" transform="translate(1468.701172 0)"/>
     <use xlink:href="#DejaVuSans-Bold-75" transform="translate(1516.503906 0)"/>
     <use xlink:href="#DejaVuSans-Bold-72" transform="translate(1587.695312 0)"/>
     <use xlink:href="#DejaVuSans-Bold-65" transform="translate(1637.011719 0)"/>
    </g>
   </g>
   <g id="text_2">
    <!-- Operator Layer -->
    <g transform="translate(46.26 77.54575) scale(0.08 -0.08)">
     <defs>
      <path id="DejaVuSans-Bold-4f" d="M 2719 3878 
Q 2169 3878 1866 3472 
Q 1563 3066 1563 2328 
Q 1563 1594 1866 1187 
Q 2169 781 2719 781 
Q 3272 781 3575 1187 
Q 3878 1594 3878 2328 
Q 3878 3066 3575 3472 
Q 3272 3878 2719 3878 
z
M 2719 4750 
Q 3844 4750 4481 4106 
Q 5119 3463 5119 2328 
Q 5119 1197 4481 553 
Q 3844 -91 2719 -91 
Q 1597 -91 958 553 
Q 319 1197 319 2328 
Q 319 3463 958 4106 
Q 1597 4750 2719 4750 
z
" transform="scale(0.015625)"/>
      <path id="DejaVuSans-Bold-70" d="M 1656 506 
L 1656 -1331 
L 538 -1331 
L 538 3500 
L 1656 3500 
L 1656 2988 
Q 1888 3294 2169 3439 
Q 2450 3584 2816 3584 
Q 3463 3584 3878 3070 
Q 4294 2556 4294 1747 
Q 4294 938 3878 423 
Q 3463 -91 2816 -91 
Q 2450 -91 2169 54 
Q 1888 200 1656 506 
z
M 2400 2772 
Q 2041 2772 1848 2508 
Q 1656 2244 1656 1747 
Q 1656 1250 1848 986 
Q 2041 722 2400 722 
Q 2759 722 2948 984 
Q 3138 1247 3138 1747 
Q 3138 2247 2948 2509 
Q 2759 2772 2400 2772 
z
" transform="scale(0.015625)"/>
      <path id="DejaVuSans-Bold-4c" d="M 588 4666 
L 1791 4666 
L 1791 909 
L 3903 909 
L 3903 0 
L 588 0 
L 588 4666 
z
" transform="scale(0.015625)"/>
     </defs>
     <use xlink:href="#DejaVuSans-Bold-4f"/>
     <use xlink:href="#DejaVuSans-Bold-70" transform="translate(85.009766 0)"/>
     <use xlink:href="#DejaVuSans-Bold-65" transform="translate(156.591797 0)"/>
     <use xlink:href="#DejaVuSans-Bold-72" transform="translate(224.414062 0)"/>
     <use xlink:href="#DejaVuSans-Bold-61" transform="translate(273.730469 0)"/>
     <use xlink:href="#DejaVuSans-Bold-74" transform="translate(341.210938 0)"/>
     <use xlink:href="#DejaVuSans-Bold-6f" transform="translate(389.013672 0)"/>
     <use xlink:href="#DejaVuSans-Bold-72" transform="translate(457.714844 0)"/>
     <use xlink:href="#DejaVuSans-Bold-20" transform="translate(507.03125 0)"/>
     <use xlink:href="#DejaVuSans-Bold-4c" transform="translate(541.845703 0)"/>
     <use xlink:href="#DejaVuSans-Bold-61" transform="translate(605.566406 0)"/>
     <use xlink:href="#DejaVuSans-Bold-79" transform="translate(669.921875 0)"/>
     <use xlink:href="#DejaVuSans-Bold-65" transform="translate(735.107422 0)"/>
     <use xlink:href="#DejaVuSans-Bold-72" transform="translate(802.929688 0)"/>
    </g>
   </g>
   <g id="text_3">
    <!-- Investigator / Analyst -->
    <g transform="translate(77.48625 115.256312) scale(0.1 -0.1)">
     <defs>
      <path id="DejaVuSans-Bold-49" d="M 588 4666 
L 1791 4666 
L 1791 0 
L 588 0 
L 588 4666 
z
" transform="scale(0.015625)"/>
      <path id="DejaVuSans-Bold-6e" d="M 4056 2131 
L 4056 0 
L 2931 0 
L 2931 347 
L 2931 1631 
Q 2931 2084 2911 2256 
Q 2891 2428 2841 2509 
Q 2775 2619 2662 2680 
Q 2550 2741 2406 2741 
Q 2056 2741 1856 2470 
Q 1656 2200 1656 1722 
L 1656 0 
L 538 0 
L 538 3500 
L 1656 3500 
L 1656 2988 
Q 1909 3294 2193 3439 
Q 2478 3584 2822 3584 
Q 3428 3584 3742 3212 
Q 4056 2841 4056 2131 
z
" transform="scale(0.015625)"/>
      <path id="DejaVuSans-Bold-76" d="M 97 3500 
L 1216 3500 
L 2088 1081 
L 2956 3500 
L 4078 3500 
L 2700 0 
L 1472 0 
L 97 3500 
z
" transform="scale(0.015625)"/>
      <path id="DejaVuSans-Bold-67" d="M 2919 594 
Q 2688 288 2409 144 
Q 2131 0 1766 0 
Q 1125 0 706 504 
Q 288 1009 288 1791 
Q 288 2575 706 3076 
Q 1125 3578 1766 3578 
Q 2131 3578 2409 3434 
Q 2688 3291 2919 2981 
L 2919 3500 
L 4044 3500 
L 4044 353 
Q 4044 -491 3511 -936 
Q 2978 -1381 1966 -1381 
Q 1638 -1381 1331 -1331 
Q 1025 -1281 716 -1178 
L 716 -306 
Q 1009 -475 1290 -558 
Q 1572 -641 1856 -641 
Q 2406 -641 2662 -400 
Q 2919 -159 2919 353 
L 2919 594 
z
M 2181 2772 
Q 1834 2772 1640 2515 
Q 1447 2259 1447 1791 
Q 1447 1309 1634 1061 
Q 1822 813 2181 813 
Q 2531 813 2725 1069 
Q 2919 1325 2919 1791 
Q 2919 2259 2725 2515 
Q 2531 2772 2181 2772 
z
" transform="scale(0.015625)"/>
      <path id="DejaVuSans-Bold-2f" d="M 1644 4666 
L 2338 4666 
L 691 -594 
L 0 -594 
L 1644 4666 
z
" transform="scale(0.015625)"/>
     </defs>
     <use xlink:href="#DejaVuSans-Bold-49"/>
     <use xlink:href="#DejaVuSans-Bold-6e" transform="translate(37.207031 0)"/>
     <use xlink:href="#DejaVuSans-Bold-76" transform="translate(108.398438 0)"/>
     <use xlink:href="#DejaVuSans-Bold-65" transform="translate(173.583984 0)"/>
     <use xlink:href="#DejaVuSans-Bold-73" transform="translate(241.40625 0)"/>
     <use xlink:href="#DejaVuSans-Bold-74" transform="translate(300.927734 0)"/>
     <use xlink:href="#DejaVuSans-Bold-69" transform="translate(348.730469 0)"/>
     <use xlink:href="#DejaVuSans-Bold-67" transform="translate(383.007812 0)"/>
     <use xlink:href="#DejaVuSans-Bold-61" transform="translate(454.589844 0)"/>
     <use xlink:href="#DejaVuSans-Bold-74" transform="translate(522.070312 0)"/>
     <use xlink:href="#DejaVuSans-Bold-6f" transform="translate(569.873047 0)"/>
     <use xlink:href="#DejaVuSans-Bold-72" transform="translate(638.574219 0)"/>
     <use xlink:href="#DejaVuSans-Bold-20" transform="translate(687.890625 0)"/>
     <use xlink:href="#DejaVuSans-Bold-2f" transform="translate(722.705078 0)"/>
     <use xlink:href="#DejaVuSans-Bold-20" transform="translate(759.228516 0)"/>
     <use xlink:href="#DejaVuSans-Bold-41" transform="translate(794.042969 0)"/>
     <use xlink:href="#DejaVuSans-Bold-6e" transform="translate(871.435547 0)"/>
     <use xlink:href="#DejaVuSans-Bold-61" transform="translate(942.626953 0)"/>
     <use xlink:href="#DejaVuSans-Bold-6c" transform="translate(1010.107422 0)"/>
     <use xlink:href="#DejaVuSans-Bold-79" transform="translate(1044.384766 0)"/>
     <use xlink:href="#DejaVuSans-Bold-73" transform="translate(1109.570312 0)"/>
     <use xlink:href="#DejaVuSans-Bold-74" transform="translate(1169.091797 0)"/>
    </g>
   </g>
   <g id="text_4">
    <!-- Host Environment -->
    <g transform="translate(294.104844 115.295375) scale(0.1 -0.1)">
     <defs>
      <path id="DejaVuSans-Bold-48" d="M 588 4666 
L 1791 4666 
L 1791 2888 
L 3566 2888 
L 3566 4666 
L 4769 4666 
L 4769 0 
L 3566 0 
L 3566 1978 
L 1791 1978 
L 1791 0 
L 588 0 
L 588 4666 
z
" transform="scale(0.015625)"/>
      <path id="DejaVuSans-Bold-45" d="M 588 4666 
L 3834 4666 
L 3834 3756 
L 1791 3756 
L 1791 2888 
L 3713 2888 
L 3713 1978 
L 1791 1978 
L 1791 909 
L 3903 909 
L 3903 0 
L 588 0 
L 588 4666 
z
" transform="scale(0.015625)"/>
     </defs>
     <use xlink:href="#DejaVuSans-Bold-48"/>
     <use xlink:href="#DejaVuSans-Bold-6f" transform="translate(83.691406 0)"/>
     <use xlink:href="#DejaVuSans-Bold-73" transform="translate(152.392578 0)"/>
     <use xlink:href="#DejaVuSans-Bold-74" transform="translate(211.914062 0)"/>
     <use xlink:href="#DejaVuSans-Bold-20" transform="translate(259.716797 0)"/>
     <use xlink:href="#DejaVuSans-Bold-45" transform="translate(294.53125 0)"/>
     <use xlink:href="#DejaVuSans-Bold-6e" transform="translate(362.841797 0)"/>
     <use xlink:href="#DejaVuSans-Bold-76" transform="translate(434.033203 0)"/>
     <use xlink:href="#DejaVuSans-Bold-69" transform="translate(499.21875 0)"/>
     <use xlink:href="#DejaVuSans-Bold-72" transform="translate(533.496094 0)"/>
     <use xlink:href="#DejaVuSans-Bold-6f" transform="translate(582.8125 0)"/>
     <use xlink:href="#DejaVuSans-Bold-6e" transform="translate(651.513672 0)"/>
     <use xlink:href="#DejaVuSans-Bold-6d" transform="translate(722.705078 0)"/>
     <use xlink:href="#DejaVuSans-Bold-65" transform="translate(826.904297 0)"/>
     <use xlink:href="#DejaVuSans-Bold-6e" transform="translate(894.726562 0)"/>
     <use xlink:href="#DejaVuSans-Bold-74" transform="translate(965.917969 0)"/>
    </g>
   </g>
   <g id="text_5">
    <!-- CLI Composition Layer -->
    <g transform="translate(46.26 177.33775) scale(0.08 -0.08)">
     <use xlink:href="#DejaVuSans-Bold-43"/>
     <use xlink:href="#DejaVuSans-Bold-4c" transform="translate(73.388672 0)"/>
     <use xlink:href="#DejaVuSans-Bold-49" transform="translate(137.109375 0)"/>
     <use xlink:href="#DejaVuSans-Bold-20" transform="translate(174.316406 0)"/>
     <use xlink:href="#DejaVuSans-Bold-43" transform="translate(209.130859 0)"/>
     <use xlink:href="#DejaVuSans-Bold-6f" transform="translate(282.519531 0)"/>
     <use xlink:href="#DejaVuSans-Bold-6d" transform="translate(351.220703 0)"/>
     <use xlink:href="#DejaVuSans-Bold-70" transform="translate(455.419922 0)"/>
     <use xlink:href="#DejaVuSans-Bold-6f" transform="translate(527.001953 0)"/>
     <use xlink:href="#DejaVuSans-Bold-73" transform="translate(595.703125 0)"/>
     <use xlink:href="#DejaVuSans-Bold-69" transform="translate(655.224609 0)"/>
     <use xlink:href="#DejaVuSans-Bold-74" transform="translate(689.501953 0)"/>
     <use xlink:href="#DejaVuSans-Bold-69" transform="translate(737.304688 0)"/>
     <use xlink:href="#DejaVuSans-Bold-6f" transform="translate(771.582031 0)"/>
     <use xlink:href="#DejaVuSans-Bold-6e" transform="translate(840.283203 0)"/>
     <use xlink:href="#DejaVuSans-Bold-20" transform="translate(911.474609 0)"/>
     <use xlink:href="#DejaVuSans-Bold-4c" transform="translate(946.289062 0)"/>
     <use xlink:href="#DejaVuSans-Bold-61" transform="translate(1010.009766 0)"/>
     <use xlink:href="#DejaVuSans-Bold-79" transform="translate(1074.365234 0)"/>
     <use xlink:href="#DejaVuSans-Bold-65" transform="translate(1139.550781 0)"/>
     <use xlink:href="#DejaVuSans-Bold-72" transform="translate(1207.373047 0)"/>
    </g>
   </g>
   <g id="text_6">
    <!-- Root CLI -->
    <g transform="translate(100.813594 223.403375) scale(0.1 -0.1)">
     <defs>
      <path id="DejaVuSans-Bold-52" d="M 2297 2597 
Q 2675 2597 2839 2737 
Q 3003 2878 3003 3200 
Q 3003 3519 2839 3656 
Q 2675 3794 2297 3794 
L 1791 3794 
L 1791 2597 
L 2297 2597 
z
M 1791 1766 
L 1791 0 
L 588 0 
L 588 4666 
L 2425 4666 
Q 3347 4666 3776 4356 
Q 4206 4047 4206 3378 
Q 4206 2916 3982 2619 
Q 3759 2322 3309 2181 
Q 3556 2125 3751 1926 
Q 3947 1728 4147 1325 
L 4800 0 
L 3519 0 
L 2950 1159 
Q 2778 1509 2601 1637 
Q 2425 1766 2131 1766 
L 1791 1766 
z
" transform="scale(0.015625)"/>
     </defs>
     <use xlink:href="#DejaVuSans-Bold-52"/>
     <use xlink:href="#DejaVuSans-Bold-6f" transform="translate(77.001953 0)"/>
     <use xlink:href="#DejaVuSans-Bold-6f" transform="translate(145.703125 0)"/>
     <use xlink:href="#DejaVuSans-Bold-74" transform="translate(214.404297 0)"/>
     <use xlink:href="#DejaVuSans-Bold-20" transform="translate(262.207031 0)"/>
     <use xlink:href="#DejaVuSans-Bold-43" transform="translate(297.021484 0)"/>
     <use xlink:href="#DejaVuSans-Bold-4c" transform="translate(370.410156 0)"/>
     <use xlink:href="#DejaVuSans-Bold-49" transform="translate(434.130859 0)"/>
    </g>
   </g>
   <g id="text_7">
    <!-- Init Registration -->
    <g transform="translate(198.247656 223.364312) scale(0.1 -0.1)">
     <use xlink:href="#DejaVuSans-Bold-49"/>
     <use xlink:href="#DejaVuSans-Bold-6e" transform="translate(37.207031 0)"/>
     <use xlink:href="#DejaVuSans-Bold-69" transform="translate(108.398438 0)"/>
     <use xlink:href="#DejaVuSans-Bold-74" transform="translate(142.675781 0)"/>
     <use xlink:href="#DejaVuSans-Bold-20" transform="translate(190.478516 0)"/>
     <use xlink:href="#DejaVuSans-Bold-52" transform="translate(225.292969 0)"/>
     <use xlink:href="#DejaVuSans-Bold-65" transform="translate(302.294922 0)"/>
     <use xlink:href="#DejaVuSans-Bold-67" transform="translate(370.117188 0)"/>
     <use xlink:href="#DejaVuSans-Bold-69" transform="translate(441.699219 0)"/>
     <use xlink:href="#DejaVuSans-Bold-73" transform="translate(475.976562 0)"/>
     <use xlink:href="#DejaVuSans-Bold-74" transform="translate(535.498047 0)"/>
     <use xlink:href="#DejaVuSans-Bold-72" transform="translate(583.300781 0)"/>
     <use xlink:href="#DejaVuSans-Bold-61" transform="translate(632.617188 0)"/>
     <use xlink:href="#DejaVuSans-Bold-74" transform="translate(700.097656 0)"/>
     <use xlink:href="#DejaVuSans-Bold-69" transform="translate(747.900391 0)"/>
     <use xlink:href="#DejaVuSans-Bold-6f" transform="translate(782.177734 0)"/>
     <use xlink:href="#DejaVuSans-Bold-6e" transform="translate(850.878906 0)"/>
    </g>
   </g>
   <g id="text_8">
    <!-- Command Surface -->
    <g transform="translate(310.221406 223.403375) scale(0.1 -0.1)">
     <defs>
      <path id="DejaVuSans-Bold-66" d="M 2841 4863 
L 2841 4128 
L 2222 4128 
Q 1984 4128 1890 4042 
Q 1797 3956 1797 3744 
L 1797 3500 
L 2753 3500 
L 2753 2700 
L 1797 2700 
L 1797 0 
L 678 0 
L 678 2700 
L 122 2700 
L 122 3500 
L 678 3500 
L 678 3744 
Q 678 4316 997 4589 
Q 1316 4863 1984 4863 
L 2841 4863 
z
" transform="scale(0.015625)"/>
     </defs>
     <use xlink:href="#DejaVuSans-Bold-43"/>
     <use xlink:href="#DejaVuSans-Bold-6f" transform="translate(73.388672 0)"/>
     <use xlink:href="#DejaVuSans-Bold-6d" transform="translate(142.089844 0)"/>
     <use xlink:href="#DejaVuSans-Bold-6d" transform="translate(246.289062 0)"/>
     <use xlink:href="#DejaVuSans-Bold-61" transform="translate(350.488281 0)"/>
     <use xlink:href="#DejaVuSans-Bold-6e" transform="translate(417.96875 0)"/>
     <use xlink:href="#DejaVuSans-Bold-64" transform="translate(489.160156 0)"/>
     <use xlink:href="#DejaVuSans-Bold-20" transform="translate(560.742188 0)"/>
     <use xlink:href="#DejaVuSans-Bold-53" transform="translate(595.556641 0)"/>
     <use xlink:href="#DejaVuSans-Bold-75" transform="translate(667.578125 0)"/>
     <use xlink:href="#DejaVuSans-Bold-72" transform="translate(738.769531 0)"/>
     <use xlink:href="#DejaVuSans-Bold-66" transform="translate(788.085938 0)"/>
     <use xlink:href="#DejaVuSans-Bold-61" transform="translate(831.591797 0)"/>
     <use xlink:href="#DejaVuSans-Bold-63" transform="translate(899.072266 0)"/>
     <use xlink:href="#DejaVuSans-Bold-65" transform="translate(958.349609 0)"/>
    </g>
   </g>
   <g id="text_9">
    <!-- Adapter Layer -->
    <g transform="translate(46.26 293.76175) scale(0.08 -0.08)">
     <use xlink:href="#DejaVuSans-Bold-41"/>
     <use xlink:href="#DejaVuSans-Bold-64" transform="translate(77.392578 0)"/>
     <use xlink:href="#DejaVuSans-Bold-61" transform="translate(148.974609 0)"/>
     <use xlink:href="#DejaVuSans-Bold-70" transform="translate(216.455078 0)"/>
     <use xlink:href="#DejaVuSans-Bold-74" transform="translate(288.037109 0)"/>
     <use xlink:href="#DejaVuSans-Bold-65" transform="translate(335.839844 0)"/>
     <use xlink:href="#DejaVuSans-Bold-72" transform="translate(403.662109 0)"/>
     <use xlink:href="#DejaVuSans-Bold-20" transform="translate(452.978516 0)"/>
     <use xlink:href="#DejaVuSans-Bold-4c" transform="translate(487.792969 0)"/>
     <use xlink:href="#DejaVuSans-Bold-61" transform="translate(551.513672 0)"/>
     <use xlink:href="#DejaVuSans-Bold-79" transform="translate(615.869141 0)"/>
     <use xlink:href="#DejaVuSans-Bold-65" transform="translate(681.054688 0)"/>
     <use xlink:href="#DejaVuSans-Bold-72" transform="translate(748.876953 0)"/>
    </g>
   </g>
   <g id="text_10">
    <!-- Category Adapters -->
    <g transform="translate(191.421094 337.016312) scale(0.1 -0.1)">
     <use xlink:href="#DejaVuSans-Bold-43"/>
     <use xlink:href="#DejaVuSans-Bold-61" transform="translate(73.388672 0)"/>
     <use xlink:href="#DejaVuSans-Bold-74" transform="translate(140.869141 0)"/>
     <use xlink:href="#DejaVuSans-Bold-65" transform="translate(188.671875 0)"/>
     <use xlink:href="#DejaVuSans-Bold-67" transform="translate(256.494141 0)"/>
     <use xlink:href="#DejaVuSans-Bold-6f" transform="translate(328.076172 0)"/>
     <use xlink:href="#DejaVuSans-Bold-72" transform="translate(396.777344 0)"/>
     <use xlink:href="#DejaVuSans-Bold-79" transform="translate(446.09375 0)"/>
     <use xlink:href="#DejaVuSans-Bold-20" transform="translate(511.279297 0)"/>
     <use xlink:href="#DejaVuSans-Bold-41" transform="translate(546.09375 0)"/>
     <use xlink:href="#DejaVuSans-Bold-64" transform="translate(623.486328 0)"/>
     <use xlink:href="#DejaVuSans-Bold-61" transform="translate(695.068359 0)"/>
     <use xlink:href="#DejaVuSans-Bold-70" transform="translate(762.548828 0)"/>
     <use xlink:href="#DejaVuSans-Bold-74" transform="translate(834.130859 0)"/>
     <use xlink:href="#DejaVuSans-Bold-65" transform="translate(881.933594 0)"/>
     <use xlink:href="#DejaVuSans-Bold-72" transform="translate(949.755859 0)"/>
     <use xlink:href="#DejaVuSans-Bold-73" transform="translate(999.072266 0)"/>
    </g>
   </g>
   <g id="text_11">
    <!-- Tool Contract -->
    <g transform="translate(117.748906 417.443375) scale(0.1 -0.1)">
     <defs>
      <path id="DejaVuSans-Bold-54" d="M 31 4666 
L 4331 4666 
L 4331 3756 
L 2784 3756 
L 2784 0 
L 1581 0 
L 1581 3756 
L 31 3756 
L 31 4666 
z
" transform="scale(0.015625)"/>
     </defs>
     <use xlink:href="#DejaVuSans-Bold-54"/>
     <use xlink:href="#DejaVuSans-Bold-6f" transform="translate(54.962891 0)"/>
     <use xlink:href="#DejaVuSans-Bold-6f" transform="translate(123.664062 0)"/>
     <use xlink:href="#DejaVuSans-Bold-6c" transform="translate(192.365234 0)"/>
     <use xlink:href="#DejaVuSans-Bold-20" transform="translate(226.642578 0)"/>
     <use xlink:href="#DejaVuSans-Bold-43" transform="translate(261.457031 0)"/>
     <use xlink:href="#DejaVuSans-Bold-6f" transform="translate(334.845703 0)"/>
     <use xlink:href="#DejaVuSans-Bold-6e" transform="translate(403.546875 0)"/>
     <use xlink:href="#DejaVuSans-Bold-74" transform="translate(474.738281 0)"/>
     <use xlink:href="#DejaVuSans-Bold-72" transform="translate(522.541016 0)"/>
     <use xlink:href="#DejaVuSans-Bold-61" transform="translate(571.857422 0)"/>
     <use xlink:href="#DejaVuSans-Bold-63" transform="translate(639.337891 0)"/>
     <use xlink:href="#DejaVuSans-Bold-74" transform="translate(698.615234 0)"/>
    </g>
   </g>
   <g id="text_12">
    <!-- Run Options -->
    <g transform="translate(299.016719 417.443375) scale(0.1 -0.1)">
     <use xlink:href="#DejaVuSans-Bold-52"/>
     <use xlink:href="#DejaVuSans-Bold-75" transform="translate(77.001953 0)"/>
     <use xlink:href="#DejaVuSans-Bold-6e" transform="translate(148.193359 0)"/>
     <use xlink:href="#DejaVuSans-Bold-20" transform="translate(219.384766 0)"/>
     <use xlink:href="#DejaVuSans-Bold-4f" transform="translate(254.199219 0)"/>
     <use xlink:href="#DejaVuSans-Bold-70" transform="translate(339.208984 0)"/>
     <use xlink:href="#DejaVuSans-Bold-74" transform="translate(410.791016 0)"/>
     <use xlink:href="#DejaVuSans-Bold-69" transform="translate(458.59375 0)"/>
     <use xlink:href="#DejaVuSans-Bold-6f" transform="translate(492.871094 0)"/>
     <use xlink:href="#DejaVuSans-Bold-6e" transform="translate(561.572266 0)"/>
     <use xlink:href="#DejaVuSans-Bold-73" transform="translate(632.763672 0)"/>
    </g>
   </g>
   <g id="text_13">
    <!-- Execution Layer -->
    <g transform="translate(46.26 487.80175) scale(0.08 -0.08)">
     <defs>
      <path id="DejaVuSans-Bold-78" d="M 1422 1791 
L 159 3500 
L 1344 3500 
L 2059 2463 
L 2784 3500 
L 3969 3500 
L 2706 1797 
L 4031 0 
L 2847 0 
L 2059 1106 
L 1281 0 
L 97 0 
L 1422 1791 
z
" transform="scale(0.015625)"/>
     </defs>
     <use xlink:href="#DejaVuSans-Bold-45"/>
     <use xlink:href="#DejaVuSans-Bold-78" transform="translate(68.310547 0)"/>
     <use xlink:href="#DejaVuSans-Bold-65" transform="translate(132.8125 0)"/>
     <use xlink:href="#DejaVuSans-Bold-63" transform="translate(200.634766 0)"/>
     <use xlink:href="#DejaVuSans-Bold-75" transform="translate(259.912109 0)"/>
     <use xlink:href="#DejaVuSans-Bold-74" transform="translate(331.103516 0)"/>
     <use xlink:href="#DejaVuSans-Bold-69" transform="translate(378.90625 0)"/>
     <use xlink:href="#DejaVuSans-Bold-6f" transform="translate(413.183594 0)"/>
     <use xlink:href="#DejaVuSans-Bold-6e" transform="translate(481.884766 0)"/>
     <use xlink:href="#DejaVuSans-Bold-20" transform="translate(553.076172 0)"/>
     <use xlink:href="#DejaVuSans-Bold-4c" transform="translate(587.890625 0)"/>
     <use xlink:href="#DejaVuSans-Bold-61" transform="translate(651.611328 0)"/>
     <use xlink:href="#DejaVuSans-Bold-79" transform="translate(715.966797 0)"/>
     <use xlink:href="#DejaVuSans-Bold-65" transform="translate(781.152344 0)"/>
     <use xlink:href="#DejaVuSans-Bold-72" transform="translate(848.974609 0)"/>
    </g>
   </g>
   <g id="text_14">
    <!-- Hybrid Runner -->
    <g transform="translate(83.472969 553.232312) scale(0.1 -0.1)">
     <defs>
      <path id="DejaVuSans-Bold-62" d="M 2400 722 
Q 2759 722 2948 984 
Q 3138 1247 3138 1747 
Q 3138 2247 2948 2509 
Q 2759 2772 2400 2772 
Q 2041 2772 1848 2508 
Q 1656 2244 1656 1747 
Q 1656 1250 1848 986 
Q 2041 722 2400 722 
z
M 1656 2988 
Q 1888 3294 2169 3439 
Q 2450 3584 2816 3584 
Q 3463 3584 3878 3070 
Q 4294 2556 4294 1747 
Q 4294 938 3878 423 
Q 3463 -91 2816 -91 
Q 2450 -91 2169 54 
Q 1888 200 1656 506 
L 1656 0 
L 538 0 
L 538 4863 
L 1656 4863 
L 1656 2988 
z
" transform="scale(0.015625)"/>
     </defs>
     <use xlink:href="#DejaVuSans-Bold-48"/>
     <use xlink:href="#DejaVuSans-Bold-79" transform="translate(83.691406 0)"/>
     <use xlink:href="#DejaVuSans-Bold-62" transform="translate(148.876953 0)"/>
     <use xlink:href="#DejaVuSans-Bold-72" transform="translate(220.458984 0)"/>
     <use xlink:href="#DejaVuSans-Bold-69" transform="translate(269.775391 0)"/>
     <use xlink:href="#DejaVuSans-Bold-64" transform="translate(304.052734 0)"/>
     <use xlink:href="#DejaVuSans-Bold-20" transform="translate(375.634766 0)"/>
     <use xlink:href="#DejaVuSans-Bold-52" transform="translate(410.449219 0)"/>
     <use xlink:href="#DejaVuSans-Bold-75" transform="translate(487.451172 0)"/>
     <use xlink:href="#DejaVuSans-Bold-6e" transform="translate(558.642578 0)"/>
     <use xlink:href="#DejaVuSans-Bold-6e" transform="translate(629.833984 0)"/>
     <use xlink:href="#DejaVuSans-Bold-65" transform="translate(701.025391 0)"/>
     <use xlink:href="#DejaVuSans-Bold-72" transform="translate(768.847656 0)"/>
    </g>
   </g>
   <g id="text_15">
    <!-- Path Remapping -->
    <g transform="translate(206.286406 553.232312) scale(0.1 -0.1)">
     <defs>
      <path id="DejaVuSans-Bold-50" d="M 588 4666 
L 2584 4666 
Q 3475 4666 3951 4270 
Q 4428 3875 4428 3144 
Q 4428 2409 3951 2014 
Q 3475 1619 2584 1619 
L 1791 1619 
L 1791 0 
L 588 0 
L 588 4666 
z
M 1791 3794 
L 1791 2491 
L 2456 2491 
Q 2806 2491 2997 2661 
Q 3188 2831 3188 3144 
Q 3188 3456 2997 3625 
Q 2806 3794 2456 3794 
L 1791 3794 
z
" transform="scale(0.015625)"/>
     </defs>
     <use xlink:href="#DejaVuSans-Bold-50"/>
     <use xlink:href="#DejaVuSans-Bold-61" transform="translate(70.666016 0)"/>
     <use xlink:href="#DejaVuSans-Bold-74" transform="translate(138.146484 0)"/>
     <use xlink:href="#DejaVuSans-Bold-68" transform="translate(185.949219 0)"/>
     <use xlink:href="#DejaVuSans-Bold-20" transform="translate(257.140625 0)"/>
     <use xlink:href="#DejaVuSans-Bold-52" transform="translate(291.955078 0)"/>
     <use xlink:href="#DejaVuSans-Bold-65" transform="translate(368.957031 0)"/>
     <use xlink:href="#DejaVuSans-Bold-6d" transform="translate(436.779297 0)"/>
     <use xlink:href="#DejaVuSans-Bold-61" transform="translate(540.978516 0)"/>
     <use xlink:href="#DejaVuSans-Bold-70" transform="translate(608.458984 0)"/>
     <use xlink:href="#DejaVuSans-Bold-70" transform="translate(680.041016 0)"/>
     <use xlink:href="#DejaVuSans-Bold-69" transform="translate(751.623047 0)"/>
     <use xlink:href="#DejaVuSans-Bold-6e" transform="translate(785.900391 0)"/>
     <use xlink:href="#DejaVuSans-Bold-67" transform="translate(857.091797 0)"/>
    </g>
   </g>
   <g id="text_16">
    <!-- Session Control -->
    <g transform="translate(328.628281 553.271375) scale(0.1 -0.1)">
     <use xlink:href="#DejaVuSans-Bold-53"/>
     <use xlink:href="#DejaVuSans-Bold-65" transform="translate(72.021484 0)"/>
     <use xlink:href="#DejaVuSans-Bold-73" transform="translate(139.84375 0)"/>
     <use xlink:href="#DejaVuSans-Bold-73" transform="translate(199.365234 0)"/>
     <use xlink:href="#DejaVuSans-Bold-69" transform="translate(258.886719 0)"/>
     <use xlink:href="#DejaVuSans-Bold-6f" transform="translate(293.164062 0)"/>
     <use xlink:href="#DejaVuSans-Bold-6e" transform="translate(361.865234 0)"/>
     <use xlink:href="#DejaVuSans-Bold-20" transform="translate(433.056641 0)"/>
     <use xlink:href="#DejaVuSans-Bold-43" transform="translate(467.871094 0)"/>
     <use xlink:href="#DejaVuSans-Bold-6f" transform="translate(541.259766 0)"/>
     <use xlink:href="#DejaVuSans-Bold-6e" transform="translate(609.960938 0)"/>
     <use xlink:href="#DejaVuSans-Bold-74" transform="translate(681.152344 0)"/>
     <use xlink:href="#DejaVuSans-Bold-72" transform="translate(728.955078 0)"/>
     <use xlink:href="#DejaVuSans-Bold-6f" transform="translate(778.271484 0)"/>
     <use xlink:href="#DejaVuSans-Bold-6c" transform="translate(846.972656 0)"/>
    </g>
   </g>
   <g id="text_17">
    <!-- External Tools / Storage -->
    <g transform="translate(46.26 643.03375) scale(0.08 -0.08)">
     <use xlink:href="#DejaVuSans-Bold-45"/>
     <use xlink:href="#DejaVuSans-Bold-78" transform="translate(68.310547 0)"/>
     <use xlink:href="#DejaVuSans-Bold-74" transform="translate(132.8125 0)"/>
     <use xlink:href="#DejaVuSans-Bold-65" transform="translate(180.615234 0)"/>
     <use xlink:href="#DejaVuSans-Bold-72" transform="translate(248.4375 0)"/>
     <use xlink:href="#DejaVuSans-Bold-6e" transform="translate(297.753906 0)"/>
     <use xlink:href="#DejaVuSans-Bold-61" transform="translate(368.945312 0)"/>
     <use xlink:href="#DejaVuSans-Bold-6c" transform="translate(436.425781 0)"/>
     <use xlink:href="#DejaVuSans-Bold-20" transform="translate(470.703125 0)"/>
     <use xlink:href="#DejaVuSans-Bold-54" transform="translate(505.517578 0)"/>
     <use xlink:href="#DejaVuSans-Bold-6f" transform="translate(560.480469 0)"/>
     <use xlink:href="#DejaVuSans-Bold-6f" transform="translate(629.181641 0)"/>
     <use xlink:href="#DejaVuSans-Bold-6c" transform="translate(697.882812 0)"/>
     <use xlink:href="#DejaVuSans-Bold-73" transform="translate(732.160156 0)"/>
     <use xlink:href="#DejaVuSans-Bold-20" transform="translate(791.681641 0)"/>
     <use xlink:href="#DejaVuSans-Bold-2f" transform="translate(826.496094 0)"/>
     <use xlink:href="#DejaVuSans-Bold-20" transform="translate(863.019531 0)"/>
     <use xlink:href="#DejaVuSans-Bold-53" transform="translate(897.833984 0)"/>
     <use xlink:href="#DejaVuSans-Bold-74" transform="translate(969.855469 0)"/>
     <use xlink:href="#DejaVuSans-Bold-6f" transform="translate(1017.658203 0)"/>
     <use xlink:href="#DejaVuSans-Bold-72" transform="translate(1086.359375 0)"/>
     <use xlink:href="#DejaVuSans-Bold-61" transform="translate(1135.675781 0)"/>
     <use xlink:href="#DejaVuSans-Bold-67" transform="translate(1203.15625 0)"/>
     <use xlink:href="#DejaVuSans-Bold-65" transform="translate(1274.738281 0)"/>
    </g>
   </g>
   <g id="text_18">
    <!-- Native Binaries -->
    <g transform="translate(60.516563 686.051437) scale(0.09 -0.09)">
     <defs>
      <path id="DejaVuSans-Bold-4e" d="M 588 4666 
L 1931 4666 
L 3628 1466 
L 3628 4666 
L 4769 4666 
L 4769 0 
L 3425 0 
L 1728 3200 
L 1728 0 
L 588 0 
L 588 4666 
z
" transform="scale(0.015625)"/>
      <path id="DejaVuSans-Bold-42" d="M 2456 2859 
Q 2741 2859 2887 2984 
Q 3034 3109 3034 3353 
Q 3034 3594 2887 3720 
Q 2741 3847 2456 3847 
L 1791 3847 
L 1791 2859 
L 2456 2859 
z
M 2497 819 
Q 2859 819 3042 972 
Q 3225 1125 3225 1434 
Q 3225 1738 3044 1889 
Q 2863 2041 2497 2041 
L 1791 2041 
L 1791 819 
L 2497 819 
z
M 3616 2497 
Q 4003 2384 4215 2081 
Q 4428 1778 4428 1338 
Q 4428 663 3972 331 
Q 3516 0 2584 0 
L 588 0 
L 588 4666 
L 2394 4666 
Q 3366 4666 3802 4372 
Q 4238 4078 4238 3431 
Q 4238 3091 4078 2852 
Q 3919 2613 3616 2497 
z
" transform="scale(0.015625)"/>
     </defs>
     <use xlink:href="#DejaVuSans-Bold-4e"/>
     <use xlink:href="#DejaVuSans-Bold-61" transform="translate(83.691406 0)"/>
     <use xlink:href="#DejaVuSans-Bold-74" transform="translate(151.171875 0)"/>
     <use xlink:href="#DejaVuSans-Bold-69" transform="translate(198.974609 0)"/>
     <use xlink:href="#DejaVuSans-Bold-76" transform="translate(233.251953 0)"/>
     <use xlink:href="#DejaVuSans-Bold-65" transform="translate(298.4375 0)"/>
     <use xlink:href="#DejaVuSans-Bold-20" transform="translate(366.259766 0)"/>
     <use xlink:href="#DejaVuSans-Bold-42" transform="translate(401.074219 0)"/>
     <use xlink:href="#DejaVuSans-Bold-69" transform="translate(477.294922 0)"/>
     <use xlink:href="#DejaVuSans-Bold-6e" transform="translate(511.572266 0)"/>
     <use xlink:href="#DejaVuSans-Bold-61" transform="translate(582.763672 0)"/>
     <use xlink:href="#DejaVuSans-Bold-72" transform="translate(650.244141 0)"/>
     <use xlink:href="#DejaVuSans-Bold-69" transform="translate(699.560547 0)"/>
     <use xlink:href="#DejaVuSans-Bold-65" transform="translate(733.837891 0)"/>
     <use xlink:href="#DejaVuSans-Bold-73" transform="translate(801.660156 0)"/>
    </g>
   </g>
   <g id="text_19">
    <!-- Container Runtime -->
    <g transform="translate(171.563906 686.051437) scale(0.09 -0.09)">
     <use xlink:href="#DejaVuSans-Bold-43"/>
     <use xlink:href="#DejaVuSans-Bold-6f" transform="translate(73.388672 0)"/>
     <use xlink:href="#DejaVuSans-Bold-6e" transform="translate(142.089844 0)"/>
     <use xlink:href="#DejaVuSans-Bold-74" transform="translate(213.28125 0)"/>
     <use xlink:href="#DejaVuSans-Bold-61" transform="translate(261.083984 0)"/>
     <use xlink:href="#DejaVuSans-Bold-69" transform="translate(328.564453 0)"/>
     <use xlink:href="#DejaVuSans-Bold-6e" transform="translate(362.841797 0)"/>
     <use xlink:href="#DejaVuSans-Bold-65" transform="translate(434.033203 0)"/>
     <use xlink:href="#DejaVuSans-Bold-72" transform="translate(501.855469 0)"/>
     <use xlink:href="#DejaVuSans-Bold-20" transform="translate(551.171875 0)"/>
     <use xlink:href="#DejaVuSans-Bold-52" transform="translate(585.986328 0)"/>
     <use xlink:href="#DejaVuSans-Bold-75" transform="translate(662.988281 0)"/>
     <use xlink:href="#DejaVuSans-Bold-6e" transform="translate(734.179688 0)"/>
     <use xlink:href="#DejaVuSans-Bold-74" transform="translate(805.371094 0)"/>
     <use xlink:href="#DejaVuSans-Bold-69" transform="translate(853.173828 0)"/>
     <use xlink:href="#DejaVuSans-Bold-6d" transform="translate(887.451172 0)"/>
     <use xlink:href="#DejaVuSans-Bold-65" transform="translate(991.650391 0)"/>
    </g>
   </g>
   <g id="text_20">
    <!-- Bundled Suites -->
    <g transform="translate(292.531641 686.051437) scale(0.09 -0.09)">
     <use xlink:href="#DejaVuSans-Bold-42"/>
     <use xlink:href="#DejaVuSans-Bold-75" transform="translate(76.220703 0)"/>
     <use xlink:href="#DejaVuSans-Bold-6e" transform="translate(147.412109 0)"/>
     <use xlink:href="#DejaVuSans-Bold-64" transform="translate(218.603516 0)"/>
     <use xlink:href="#DejaVuSans-Bold-6c" transform="translate(290.185547 0)"/>
     <use xlink:href="#DejaVuSans-Bold-65" transform="translate(324.462891 0)"/>
     <use xlink:href="#DejaVuSans-Bold-64" transform="translate(392.285156 0)"/>
     <use xlink:href="#DejaVuSans-Bold-20" transform="translate(463.867188 0)"/>
     <use xlink:href="#DejaVuSans-Bold-53" transform="translate(498.681641 0)"/>
     <use xlink:href="#DejaVuSans-Bold-75" transform="translate(570.703125 0)"/>
     <use xlink:href="#DejaVuSans-Bold-69" transform="translate(641.894531 0)"/>
     <use xlink:href="#DejaVuSans-Bold-74" transform="translate(676.171875 0)"/>
     <use xlink:href="#DejaVuSans-Bold-65" transform="translate(723.974609 0)"/>
     <use xlink:href="#DejaVuSans-Bold-73" transform="translate(791.796875 0)"/>
    </g>
   </g>
   <g id="text_21">
    <!-- Sessions -->
    <g transform="translate(392.374688 686.051437) scale(0.09 -0.09)">
     <use xlink:href="#DejaVuSans-Bold-53"/>
     <use xlink:href="#DejaVuSans-Bold-65" transform="translate(72.021484 0)"/>
     <use xlink:href="#DejaVuSans-Bold-73" transform="translate(139.84375 0)"/>
     <use xlink:href="#DejaVuSans-Bold-73" transform="translate(199.365234 0)"/>
     <use xlink:href="#DejaVuSans-Bold-69" transform="translate(258.886719 0)"/>
     <use xlink:href="#DejaVuSans-Bold-6f" transform="translate(293.164062 0)"/>
     <use xlink:href="#DejaVuSans-Bold-6e" transform="translate(361.865234 0)"/>
     <use xlink:href="#DejaVuSans-Bold-73" transform="translate(433.056641 0)"/>
    </g>
   </g>
  </g>
 </g>
 <defs>
  <clipPath id="p5fce56319d">
   <rect x="7.2" y="7.2" width="474.3" height="748.44"/>
  </clipPath>
 </defs>
</svg>
